<svg width="1000" height="1000" viewBox="0 0 1000 1000" fill="none" xmlns="http://www.w3.org/2000/svg">
<path d="M156.311 53.8562C163.82 75.2941 164.856 76.8627 185.31 104.837C194.891 117.908 209.455 132.81 215.863 138.301C222.272 143.791 227.579 149.281 229.068 150.654C232.952 155.556 270.237 179.608 300.272 193.725C368.109 225.882 439.313 240.523 529.418 240.261C613.05 240 661.209 230.85 735.261 200.523C735.261 200.523 764.167 183.983 784.778 179.74C793.396 177.966 807.759 177.779 807.759 177.779C827.631 177.779 836.222 181.321 848.578 186.416L849.187 186.667C867.052 194.248 889.902 209.346 896.116 219.281C899.487 224.313 900 229.085 900 229.085C900 229.085 894.672 228.105 890.29 228.105C885.371 228.105 873.784 231.634 863.427 235.033C833.392 245.49 801.545 270.065 782.126 297.778C772.805 311.111 756.298 344.771 754.68 350.588C753.385 354.575 752.35 356.863 749.761 363.137C740.698 382.745 736.297 420.131 733.966 491.503C731.377 566.797 729.047 581.438 710.663 643.399C696.164 692.026 693.575 699.346 680.628 727.582C674.414 740.915 672.796 745.752 669.236 754.248C665.999 761.438 642.567 799.739 617.193 833.987C559.453 912.418 480.482 969.412 402.546 989.02C378.207 995.033 342.994 1000 324.869 1000L313.218 999.739L330.566 993.725C353.869 985.621 393.16 946.732 399.957 939.869C403.805 935.012 411.975 923.097 416.658 916.267L416.787 916.078C431.545 895.163 458.732 833.464 462.098 813.595C463.393 806.013 466.241 791.634 468.312 781.699C476.08 745.621 477.892 702.745 473.75 663.529C469.866 626.667 462.616 588.235 455.107 564.706C449.411 546.667 426.108 499.608 415.492 483.66C390.118 447.32 355.681 421.177 314.513 407.843C292.504 400.523 253.666 381.699 230.622 366.797C211.72 354.771 164.014 310.458 159.418 303.529C156.246 298.748 151.392 292.81 143.365 281.046C127.053 259.608 109.964 222.222 103.232 192.941C95.9823 161.83 101.161 109.542 116.437 62.7451C122.392 44.4444 127.312 33.7255 138.187 15.6863L147.508 0L149.061 18.8236C150.097 29.0197 153.463 44.7059 156.311 53.8562Z" fill="white"/>
</svg>
