<svg width="1000" height="1000" viewBox="0 0 1000 1000" fill="none" xmlns="http://www.w3.org/2000/svg">
<mask id="mask0_1925_266" style="mask-type:alpha" maskUnits="userSpaceOnUse" x="0" y="175" width="1000" height="650">
<path d="M244.732 390.186L183.505 284.624H61.132L7.46862e-05 390.186L61.132 495.857H183.505L244.732 390.186Z" fill="white"/>
<path d="M244.732 609.597L183.505 504.035H61.1319L0 609.597L61.1319 715.267H183.505L244.732 609.597Z" fill="white"/>
<path d="M1000 390.188L938.773 284.626H816.4L755.268 390.188L816.4 495.858H938.773L1000 390.188Z" fill="white"/>
<path d="M999.949 609.599L938.721 504.037H816.348L755.217 609.599L816.348 715.269H938.721L999.949 609.599Z" fill="white"/>
<path d="M274.727 498.702C274.097 474.735 291.451 458.893 313.476 458.893C323.978 458.893 329.562 461.188 336 468C336 468 566.198 335.248 571.5 318C576.802 300.752 564.561 280.562 564.561 280.562L625.692 175H748.063L809.29 280.562L748.063 386.232H625.692C625.692 386.232 609.598 359.687 596.5 354C579.557 346.643 529.366 373.429 545.5 390.5C561.634 407.571 645.486 468.406 655.5 461.5C668.229 452.722 670.138 449.55 687.508 449.55C716.07 449.55 735.811 473.783 735.112 499.572C734.414 525.36 715.012 547.042 687.508 547.042C660.003 547.042 638.076 529.687 637.259 499.572C637.142 495.273 639.475 494.062 637.259 490C633.32 482.781 505.5 403.622 458 427.5C415.172 449.029 349 490 349 490C349.757 493.293 350.277 495.253 350.186 498.702C350.071 503.095 350.357 503.044 349 507C349 507 567.181 630.384 583.905 636.003C600.628 641.622 618.167 629.91 625.692 613.768H748.063L809.29 719.33L748.063 825H625.692L564.561 719.33C579.826 696.123 589.207 671.75 571.26 659.97C553.313 648.189 336 529 336 529C329.556 535.748 323.965 536.48 313.476 536.48C292.266 536.48 275.357 522.669 274.727 498.702Z" fill="white"/>
</mask>
<g mask="url(#mask0_1925_266)">
<rect width="1000" height="1000" fill="url(#paint0_linear_1925_266)"/>
<rect width="1000" height="1000" fill="url(#paint1_linear_1925_266)"/>
<rect y="1.66797" width="1000" height="1000" fill="url(#paint2_linear_1925_266)"/>
</g>
<defs>
<linearGradient id="paint0_linear_1925_266" x1="0" y1="500" x2="1000" y2="500" gradientUnits="userSpaceOnUse">
<stop stop-color="#C06000"/>
<stop offset="0.5" stop-color="#A08000"/>
<stop offset="1" stop-color="#C00060"/>
</linearGradient>
<linearGradient id="paint1_linear_1925_266" x1="0" y1="500" x2="1000" y2="500" gradientUnits="userSpaceOnUse">
<stop stop-color="#C06000"/>
<stop offset="0.5" stop-color="#A08000"/>
<stop offset="1" stop-color="#C00060"/>
</linearGradient>
<linearGradient id="paint2_linear_1925_266" x1="0" y1="501.668" x2="1000" y2="501.668" gradientUnits="userSpaceOnUse">
<stop stop-color="#C06000"/>
<stop offset="0.5" stop-color="#A08000"/>
<stop offset="1" stop-color="#C00060"/>
</linearGradient>
</defs>
</svg>
